<?xml version="1.0" ?><!DOCTYPE svg  PUBLIC '-//W3C//DTD SVG 1.1//EN'  'http://www.w3.org/Graphics/SVG/1.1/DTD/svg11.dtd'><svg enable-background="new 0 0 91 91" height="91px" id="Layer_1" version="1.1" viewBox="0 0 91 91" width="91px" xml:space="preserve" xmlns="http://www.w3.org/2000/svg" xmlns:xlink="http://www.w3.org/1999/xlink"><g><path d="M44.984,29.052l-14.618,9.456l1.847,2.855l4.176-2.701v12.48h19.036V38.661l4.176,2.702l1.847-2.855   l-14.616-9.456C46.27,28.688,45.546,28.688,44.984,29.052z M52.024,47.742H39.789V36.463l6.119-3.959l6.116,3.958V47.742z" fill="#010101"/><path d="M45.906,17.293c-12.951,0-23.487,10.537-23.487,23.488c0,10.587,7.275,19.985,17.427,22.695l4.472,11.758   c0.251,0.66,0.884,1.096,1.589,1.096c0.004,0,0.008,0,0.011,0c0.71-0.005,1.342-0.449,1.586-1.116l4.276-11.688   c10.263-2.645,17.614-12.061,17.614-22.745C69.394,27.83,58.857,17.293,45.906,17.293z M50.142,60.42   c-0.571,0.122-1.039,0.529-1.24,1.078l-3.026,8.269l-3.168-8.332c-0.203-0.533-0.66-0.93-1.217-1.055   c-9.08-2.036-15.671-10.278-15.671-19.599c0-11.076,9.011-20.088,20.087-20.088s20.087,9.012,20.087,20.088   C65.993,50.191,59.326,58.451,50.142,60.42z" fill="#010101"/></g></svg>