<svg id="Capa_1" enable-background="new 0 0 512 512" height="512" viewBox="0 0 512 512" width="512" xmlns="http://www.w3.org/2000/svg"><g><path d="m292.748 209.034-28.128-110.652h12.351v-98.382h-195.3v98.382h12.351l-31.21 122.776v290.842h386.376v-302.966zm126.44 58.694h-146.931v-28.693h146.931zm-146.931 30h146.931v126.849h-146.931zm-160.586-267.728h135.299v38.382h-135.299zm121.995 68.382 17.311 68.1h-143.312l17.311-68.1zm-140.854 183.369h71.509v139.204h-71.509zm0 200.249v-31.045h101.509v-199.204h-101.509v-26.839l7.227-28.431h158.564l3.191 12.553h-19.537v272.966zm179.445 0v-27.424h146.931v27.424z"/></g></svg>