<?xml version="1.0" encoding="iso-8859-1"?>
<!-- Generator: Adobe Illustrator 16.0.0, SVG Export Plug-In . SVG Version: 6.00 Build 0)  -->
<!DOCTYPE svg PUBLIC "-//W3C//DTD SVG 1.1//EN" "http://www.w3.org/Graphics/SVG/1.1/DTD/svg11.dtd">
<svg version="1.1" id="Capa_1" xmlns="http://www.w3.org/2000/svg" xmlns:xlink="http://www.w3.org/1999/xlink" x="0px" y="0px"
	 width="83.182px" height="83.182px" viewBox="0 0 83.182 83.182" style="enable-background:new 0 0 83.182 83.182;"
	 xml:space="preserve">
<g>
	<g>
		<path d="M55.579,42.896l-0.455-1.168l-15.553,4.867c0.103,0.328,0.229,0.656,0.365,0.879c0.1,0.035,0.292,0.076,0.439,0.107
			c0.914,0.195,2.445,0.521,3.293,2.596c0.885,2.166,2.609,4.747,5.803,4.747c0.631,0,1.305-0.101,2-0.3
			c1.559-0.443,3.449-3.385,2.865-6.534C53.811,45.249,54.821,43.656,55.579,42.896z M49.494,53.543
			c-2.012,0-3.648-1.637-3.648-3.648c0-2.011,1.638-3.647,3.648-3.647c2.012,0,3.648,1.637,3.648,3.647
			C53.143,51.906,51.506,53.543,49.494,53.543z"/>
		<circle cx="49.494" cy="49.895" r="1.648"/>
	</g>
	<path d="M14.046,20.496c-0.09,0.195-0.131,0.415-0.076,0.641c0.11,0.458,0.52,0.766,0.971,0.766c0.078,0,0.157-0.009,0.235-0.028
		l31.244-7.546c0.536-0.129,0.866-0.67,0.736-1.206c-0.129-0.537-0.676-0.867-1.206-0.737l-22.491,5.432L62.823,6.617
		c1.05,2.539,4.069,10.657,1.997,15.48c-0.671,1.562-1.805,2.594-3.467,3.155c-8.494,2.869-21.638,6.885-24.813,7.851l-3.362-5.006
		c-0.098-0.123-2.423-3.019-6.509-3.019c-0.902,0-1.829,0.145-2.755,0.429c-4.473,1.377-15.872,4.589-18.675,5.377L0,24.493
		L14.046,20.496z"/>
	<g>
		<path d="M64.555,29.495c-4.176,1.982-18.756,8.644-29.216,10.138c-0.369,0.054-0.727-0.101-0.945-0.396l-5.295-7.149
			c-0.096-0.128-0.158-0.278-0.184-0.437c-0.034-0.158-0.303-1.058-1.882-1.058c-0.782,0-1.746,0.217-2.865,0.643
			c-4.253,1.62-9.092,3.022-11.144,3.596l2.97,9.62c0.14,0.184,0.899,1.03,3.158,1.032c1.141,0,2.481-0.222,3.985-0.654
			c6.194-1.786,36.469-10.655,42.116-12.311L64.555,29.495z"/>
		<path d="M9.282,33.99c-0.144-0.485-0.633-0.791-1.123-0.703l-3.971,0.662c-0.297,0.05-0.556,0.229-0.705,0.491
			c-0.148,0.261-0.172,0.575-0.063,0.856l4.766,12.312c0.102,0.263,0.31,0.47,0.572,0.57c0.116,0.045,0.238,0.067,0.36,0.067
			c0.153,0,0.307-0.035,0.447-0.104l2.646-1.324c0.434-0.217,0.649-0.713,0.512-1.178L9.282,33.99z"/>
	</g>
	<path d="M83.18,76.564h-6.631l-0.106-4.231c-0.015-0.542-0.458-0.976-1-0.976H46.523V59.505c0.783,0.36,1.812,0.672,3.021,0.672
		c1.075,0,2.143-0.243,3.188-0.729v4.347c0,0.553,0.447,1,1,1h21.976c0.554,0,1-0.447,1-1v-5.089h6.474v17.858H83.18z"/>
</g>
<g>
</g>
<g>
</g>
<g>
</g>
<g>
</g>
<g>
</g>
<g>
</g>
<g>
</g>
<g>
</g>
<g>
</g>
<g>
</g>
<g>
</g>
<g>
</g>
<g>
</g>
<g>
</g>
<g>
</g>
</svg>
